<?xml version="1.0" encoding="UTF-8" standalone="no"?>
<svg
  version="1.0"
  xmlns="http://www.w3.org/2000/svg"
  xmlns:xlink="http://www.w3.org/1999/xlink"
  width="2400"
  height="1800"
>
  
  <rect
    x="0"
    y="0"
    width="100%"
    height="100%"
    fill="rgba(255,255,255,0)"
    fill-opacity="1"
  ></rect>
  <svg
    version="1.0"
    xmlns="http://www.w3.org/2000/svg"
    xmlns:xlink="http://www.w3.org/1999/xlink"
    x="0"
    y="0"
    width="2400"
    height="1800"
    viewBox="0 0 340.000000 250.000000"
    preserveAspectRatio="xMidYMid meet"
    color-interpolation-filters="sRGB"
  >
    <defs><linearGradient id="92" x1="0%" y1="0%" x2="100%" y2="0%"><stop offset="0%" stop-color="#fa71cd"/> <stop offset="100%" stop-color="#9b59b6"/></linearGradient><linearGradient id="93" x1="0%" y1="0%" x2="100%" y2="0%"><stop offset="0%" stop-color="#f9d423"/> <stop offset="100%" stop-color="#f83600"/></linearGradient><linearGradient id="94" x1="0%" y1="0%" x2="100%" y2="0%"><stop offset="0%" stop-color="#0064d2"/> <stop offset="100%" stop-color="#1cb0f6"/></linearGradient><linearGradient id="95" x1="0%" y1="0%" x2="100%" y2="0%"><stop offset="0%" stop-color="#f00978"/> <stop offset="100%" stop-color="#3f51b1"/></linearGradient><linearGradient id="96" x1="0%" y1="0%" x2="100%" y2="0%"><stop offset="0%" stop-color="#7873f5"/> <stop offset="100%" stop-color="#ec77ab"/></linearGradient><linearGradient id="97" x1="0%" y1="0%" x2="100%" y2="0%"><stop offset="0%" stop-color="#f9d423"/> <stop offset="100%" stop-color="#e14fad"/></linearGradient><linearGradient id="98" x1="0%" y1="0%" x2="100%" y2="0%"><stop offset="0%" stop-color="#009efd"/> <stop offset="100%" stop-color="#2af598"/></linearGradient><linearGradient id="99" x1="0%" y1="0%" x2="100%" y2="0%"><stop offset="0%" stop-color="#ffcc00"/> <stop offset="100%" stop-color="#00b140"/></linearGradient><linearGradient id="100" x1="0%" y1="0%" x2="100%" y2="0%"><stop offset="0%" stop-color="#d51007"/> <stop offset="100%" stop-color="#ff8177"/></linearGradient><linearGradient id="102" x1="0%" y1="0%" x2="100%" y2="0%"><stop offset="0%" stop-color="#a2b6df"/> <stop offset="100%" stop-color="#0c3483"/></linearGradient><linearGradient id="103" x1="0%" y1="0%" x2="100%" y2="0%"><stop offset="0%" stop-color="#7ac5d8"/> <stop offset="100%" stop-color="#eea2a2"/></linearGradient><linearGradient id="104" x1="0%" y1="0%" x2="100%" y2="0%"><stop offset="0%" stop-color="#00ecbc"/> <stop offset="100%" stop-color="#007adf"/></linearGradient><linearGradient id="105" x1="0%" y1="0%" x2="100%" y2="0%"><stop offset="0%" stop-color="#b88746"/> <stop offset="100%" stop-color="#fdf5a6"/></linearGradient></defs> <g fill="#ffffff" class="icon-text-wrapper icon-svg-group iconsvg" transform="translate(94.4000015258789,25.789459228515625)"><g class="iconsvg-imagesvg" transform="translate(0,0)"><g><rect fill="#ffffff" fill-opacity="0" stroke-width="2" x="0" y="0" width="151.20000000000007" height="153.33908016834854" class="image-rect"/> <svg x="0" y="0" width="151.20000000000007" height="153.33908016834854" filtersec="colorsb3540278138" class="image-svg-svg primary" style="overflow: visible;"><svg xmlns="http://www.w3.org/2000/svg" viewBox="0.13044722378253937 0.0027426481246948242 182.73129272460938 185.31674194335938"><path d="M105 125.53c-.17 2.31-.28 5.05-.57 7.78-.57 5.44-4.49 8.95-9.45 8.55s-8.31-4.39-8.06-9.67a92.23 92.23 0 0 0-.36-16.94 74.94 74.94 0 0 0-18-39.9C56.41 61.38 41 53.1 22.76 50.13c-2.86-.46-5.79-.57-8.7-.76-5.34-.33-9.17-4.2-8.92-9.1.27-5.17 4.28-8.74 9.76-8.51a89.74 89.74 0 0 1 31.56 6.76q42.55 18.1 55.3 62.63C104 109 104.74 117 105 125.53z" fill="#de7a11"/><path d="M158.11 124c-.06 19.94-3.38 37.9-10.32 55.17-2 5.11-6.63 7.26-11.44 5.45-4.52-1.7-6.71-6.52-4.9-11.51a149.59 149.59 0 0 0 6.45-21.72 130.75 130.75 0 0 0 2.34-35.26 129 129 0 0 0-22-63.59c-3.08-4.59-2-10 2.25-12.71s9.33-1.48 12.36 3a146.13 146.13 0 0 1 23.45 59.6 170.7 170.7 0 0 1 1.81 21.57z" fill="#c20815"/><path d="M182.65 98.74c0 5.09-3.45 9-7.69 9.25-4.86.35-8.84-2.58-9.58-7.17a156.45 156.45 0 0 0-30.27-70.51 153.56 153.56 0 0 0-13.3-15.21A8.75 8.75 0 0 1 130.19.41 9 9 0 0 1 134.41 3a172.63 172.63 0 0 1 38.79 59.78 176.49 176.49 0 0 1 9.05 32.85c.22 1.22.32 2.47.4 3.11z" fill="#892e90"/><path d="M51.65 126.05c0 18.6-13.95 35.05-33.35 38.55-2.21.4-4.38 1-6.65.26a8.8 8.8 0 0 1-6.49-9.21 8.6 8.6 0 0 1 8.09-8.09A22.88 22.88 0 0 0 33.69 129c2.22-11.17-6-23.73-17.23-25.74-1.15-.21-2.29-.45-3.44-.62-5.37-.79-8.46-4.89-7.71-10.26.65-4.69 5-7.6 10.05-7.14a40.38 40.38 0 0 1 36.29 40.79z" fill="#20a094"/><path d="M131.39 125.1a120.53 120.53 0 0 1-7 40.17c-1.83 5.13-6.57 7.59-11.25 5.89s-6.76-6.43-5-11.44a105.72 105.72 0 0 0 5.45-44.72 99.71 99.71 0 0 0-4.84-22.63c-1.64-5 .63-9.93 5.17-11.4 4.89-1.57 9.51.88 11.2 6a122.89 122.89 0 0 1 6.27 38.13z" fill="#c20815"/><path d="M15.14 5.19c25 1.15 47.3 8.63 67.09 23.18C84.64 30.14 87 32 89.25 34c3.75 3.38 4.12 8.45 1.08 12a8.33 8.33 0 0 1-12.21 1 104.74 104.74 0 0 0-33.64-19 94.83 94.83 0 0 0-29-5.28c-3.35-.05-6.46-.76-8.52-3.78a8.31 8.31 0 0 1-.63-9A8.49 8.49 0 0 1 14 5.2c.53-.03 1.12-.01 1.14-.01z" fill="#892e90"/><path d="M17 58.55C33.2 59.83 48.36 66.81 60.59 80A61.35 61.35 0 0 1 70 93.14c2.43 4.61 1.1 9.65-3.16 12.16s-9.33 1.18-12-3.46c-5.55-9.58-13.06-17-23.21-21.52a45.52 45.52 0 0 0-16.84-4.12c-6.72-.28-10.61-4.9-9.42-11C6.22 60.9 10 58.36 17 58.55z" fill="#78b83a"/><path d="M71.21 153a7.41 7.41 0 0 1-1.21 4.25A66 66 0 0 1 42.85 184a8.72 8.72 0 0 1-11.92-3.15 8.59 8.59 0 0 1 3.38-12.05 52.8 52.8 0 0 0 20.86-20.89 8.37 8.37 0 0 1 9.72-3.71 8.57 8.57 0 0 1 6.32 8.8zM159.13 176.15c-.19-2.55 1.14-5 1.87-7.49a183.18 183.18 0 0 0 4.28-18.94c.85-4.77 5-8.14 9.55-7.61a8.71 8.71 0 0 1 7.83 9.58c-.85 8-2.94 15.82-5.19 23.55-.42 1.44-.82 2.88-1.36 4.27a9 9 0 0 1-9.75 5.71 8.78 8.78 0 0 1-7.23-9.07zM173.91 33.06a7.82 7.82 0 0 1-7.17-3.76c-3.48-5.3-7.1-10.45-10.74-15.58a8.69 8.69 0 0 1 1.92-11.84c3.55-2.75 8.89-2.53 11.76 1a103.71 103.71 0 0 1 12.25 17.86c2.95 5.71-1.48 12.36-8.02 12.32z" fill="#20a094"/><path d="M10.73 135.93a10.73 10.73 0 1 1 .27-21.46 10.73 10.73 0 1 1-.22 21.46z" fill="#78b83a"/></svg></svg> </g></g> <g transform="translate(4.049995422363281,160.33908081054688)"><g fill-rule="" class="tp-name iconsvg-namesvg" transform="translate(0,0)"><g transform="scale(1)"><g><path d="M13.64-10.08L13.64-10.08Q13.64-7.69 13.19-5.94 12.74-4.2 12.04-2.98 11.33-1.75 10.45-0.98 9.57-0.22 8.68 0.2 7.8 0.62 7.02 0.77 6.25 0.93 5.75 0.93L5.75 0.93Q5.63 0.93 5.22 0.91 4.82 0.9 4.23 0.84 3.64 0.79 2.9 0.69 2.16 0.59 1.35 0.4L1.35 0.4Q1.37-2.51 1.39-4.65 1.41-6.79 1.43-8.33 1.44-9.88 1.45-10.92 1.47-11.96 1.48-12.71 1.48-13.46 1.49-14 1.5-14.53 1.5-15.05L1.5-15.05Q1.5-15.86 1.48-16.72 1.47-17.58 1.43-18.38 1.38-19.19 1.31-19.9 1.23-20.6 1.12-21.1L1.12-21.1Q2.26-21.18 3.21-21.2 4.16-21.22 4.85-21.22L4.85-21.22Q6.58-21.22 7.91-20.8 9.23-20.38 10.21-19.64 11.18-18.9 11.84-17.86 12.49-16.83 12.89-15.59 13.3-14.36 13.47-12.95 13.64-11.55 13.64-10.08ZM9.82-10.54L9.82-10.54Q9.82-13.14 9.57-14.78 9.33-16.41 8.79-17.33 8.26-18.24 7.4-18.57 6.54-18.9 5.32-18.9L5.32-18.9 4.88-18.9 5.06-1.63Q5.35-1.51 5.61-1.48 5.86-1.44 6.11-1.44L6.11-1.44Q7.1-1.44 7.8-1.9 8.49-2.37 8.94-3.43 9.39-4.5 9.6-6.24 9.82-7.98 9.82-10.54ZM19.5-20.62L19.5-20.62Q19.5-20.15 19.32-19.73 19.15-19.31 18.84-19 18.53-18.69 18.11-18.51 17.69-18.32 17.22-18.32L17.22-18.32Q16.75-18.32 16.33-18.51 15.91-18.69 15.61-19 15.3-19.31 15.11-19.73 14.93-20.15 14.93-20.62L14.93-20.62Q14.93-21.09 15.11-21.51 15.3-21.92 15.61-22.23 15.91-22.54 16.33-22.73 16.75-22.91 17.22-22.91L17.22-22.91Q17.69-22.91 18.11-22.73 18.53-22.54 18.84-22.23 19.15-21.92 19.32-21.51 19.5-21.09 19.5-20.62ZM15.17-16.11L19.5-16.16Q19.38-15 19.3-13.66 19.22-12.31 19.17-10.9 19.12-9.49 19.09-8.07 19.06-6.64 19.04-5.35 19.03-4.06 19.02-2.93 19.02-1.81 19.02-1L19.02-1 19.02 0.66 15.68 0.78Q15.71-0.24 15.71-1.19 15.71-2.15 15.71-3.1L15.71-3.1Q15.71-4.76 15.68-6.34 15.65-7.92 15.58-9.51 15.52-11.09 15.42-12.73 15.31-14.36 15.17-16.11L15.17-16.11ZM31.52-13.24L31.52-13.24Q31.52-12.56 31.27-12.09 31.02-11.62 30.67-11.33 30.32-11.04 29.93-10.9 29.55-10.77 29.29-10.77L29.29-10.77Q29.02-10.77 28.66-10.87 28.29-10.96 27.96-11.21 27.63-11.46 27.39-11.88 27.16-12.3 27.16-12.95L27.16-12.95Q27.17-13.3 27.29-13.64L27.29-13.64Q27.39-13.93 27.6-14.25 27.82-14.56 28.21-14.81L28.21-14.81Q27.95-15.19 27.69-15.4 27.42-15.61 27.22-15.71L27.22-15.71Q26.97-15.83 26.76-15.86L26.76-15.86Q26.3-15.86 25.94-15.67 25.57-15.49 25.31-15.19 25.05-14.89 24.92-14.49 24.78-14.09 24.78-13.67L24.78-13.67Q24.78-13.12 24.85-12.68 24.92-12.24 25.19-11.79 25.45-11.33 25.98-10.8 26.51-10.27 27.42-9.57L27.42-9.57Q28.33-8.86 29.01-8.19 29.68-7.52 30.12-6.88 30.57-6.23 30.79-5.58 31.01-4.92 31.01-4.22L31.01-4.22Q31.01-3.75 30.91-3.2 30.82-2.65 30.59-2.08 30.36-1.51 29.99-0.99 29.61-0.47 29.06-0.06 28.51 0.35 27.77 0.6 27.02 0.84 26.07 0.84L26.07 0.84Q24.63 0.84 23.61 0.41 22.6-0.01 21.95-0.62 21.29-1.23 20.99-1.91 20.69-2.59 20.69-3.1L20.69-3.1Q20.69-3.64 20.82-4.11 20.96-4.58 21.24-4.94 21.53-5.29 21.98-5.49 22.42-5.69 23.06-5.69L23.06-5.69Q23.59-5.69 24.02-5.53 24.45-5.36 24.77-5.05 25.08-4.73 25.26-4.28 25.44-3.82 25.44-3.25L25.44-3.25Q25.42-3 25.33-2.73L25.33-2.73Q25.26-2.51 25.08-2.25 24.91-1.98 24.6-1.75L24.6-1.75Q24.81-1.59 25-1.51 25.2-1.43 25.36-1.4L25.36-1.4Q25.54-1.35 25.72-1.35L25.72-1.35Q25.91-1.35 26.16-1.46 26.42-1.57 26.66-1.81 26.89-2.04 27.05-2.38 27.22-2.72 27.22-3.19L27.22-3.19Q27.22-3.66 27.13-4.05 27.05-4.44 26.8-4.86 26.54-5.28 26.05-5.78 25.57-6.27 24.78-6.98L24.78-6.98Q23.98-7.69 23.37-8.35 22.75-9.02 22.33-9.74 21.91-10.46 21.69-11.26 21.47-12.05 21.47-13.01L21.47-13.01Q21.47-13.95 21.84-14.83 22.22-15.71 22.91-16.39 23.6-17.08 24.58-17.48 25.57-17.88 26.79-17.88L26.79-17.88Q28.02-17.88 28.92-17.5 29.82-17.12 30.39-16.48 30.96-15.84 31.24-15 31.52-14.17 31.52-13.24ZM43.78-12.49L43.78-12.49Q43.78-11.48 43.5-10.88 43.23-10.29 42.86-9.99 42.48-9.68 42.09-9.6 41.7-9.51 41.45-9.51L41.45-9.51Q41.2-9.51 40.85-9.59 40.5-9.67 40.17-9.91 39.84-10.15 39.61-10.6 39.38-11.05 39.38-11.77L39.38-11.77Q39.4-12.17 39.53-12.55L39.53-12.55Q39.65-12.87 39.88-13.21 40.12-13.55 40.56-13.78L40.56-13.78Q40.31-14.34 40.01-14.64 39.71-14.93 39.43-15.08L39.43-15.08Q39.1-15.24 38.78-15.28L38.78-15.28Q38.24-15.28 37.8-14.78 37.35-14.28 37.05-13.38 36.74-12.48 36.57-11.21 36.4-9.95 36.4-8.42L36.4-8.42Q36.4-6.91 36.51-5.59 36.62-4.28 36.87-3.3 37.12-2.32 37.55-1.76 37.97-1.2 38.6-1.2L38.6-1.2Q38.94-1.22 39.28-1.37L39.28-1.37Q39.57-1.48 39.9-1.76 40.23-2.03 40.5-2.53L40.5-2.53Q39.99-2.78 39.71-3.14 39.44-3.5 39.32-3.84L39.32-3.84Q39.18-4.23 39.16-4.66L39.16-4.66Q39.16-5.36 39.44-5.8 39.72-6.25 40.1-6.5 40.48-6.76 40.88-6.86 41.28-6.95 41.51-6.95L41.51-6.95Q41.76-6.95 42.13-6.85 42.5-6.74 42.84-6.45 43.17-6.16 43.42-5.62 43.66-5.08 43.66-4.22L43.66-4.22Q43.66-3.35 43.24-2.42 42.82-1.5 42.11-0.73 41.4 0.03 40.46 0.51 39.53 1 38.5 1L38.5 1Q37.81 1 37.1 0.81 36.4 0.62 35.75 0.18 35.11-0.26 34.53-0.98 33.96-1.7 33.54-2.75 33.12-3.79 32.88-5.19 32.64-6.6 32.64-8.42L32.64-8.42Q32.64-10.24 32.9-11.62 33.17-12.99 33.63-13.97 34.09-14.96 34.69-15.61 35.3-16.25 35.98-16.63 36.66-17.02 37.38-17.16 38.1-17.31 38.78-17.31L38.78-17.31Q39.78-17.31 40.69-16.94 41.6-16.56 42.28-15.91 42.97-15.25 43.37-14.37 43.78-13.49 43.78-12.49ZM50.52 0.84L50.52 0.84Q49.07 0.84 48.02 0.21 46.97-0.43 46.28-1.56 45.6-2.69 45.28-4.25 44.95-5.8 44.95-7.64L44.95-7.64Q44.95-9.77 45.33-11.55 45.72-13.33 46.46-14.61 47.2-15.89 48.3-16.6 49.39-17.31 50.82-17.31L50.82-17.31Q52.26-17.31 53.3-16.71 54.34-16.11 55.03-15.02 55.71-13.93 56.03-12.42 56.36-10.9 56.36-9.08L56.36-9.08Q56.36-8.14 56.25-7.04 56.13-5.94 55.88-4.83 55.62-3.73 55.19-2.71 54.77-1.69 54.12-0.9 53.48-0.1 52.59 0.37 51.7 0.84 50.52 0.84ZM52.81-10.17L52.81-10.17Q52.81-11.29 52.71-12.17 52.61-13.06 52.38-13.68 52.15-14.3 51.81-14.63 51.46-14.96 50.98-14.96L50.98-14.96Q50.45-14.96 49.99-14.4 49.54-13.84 49.19-12.78 48.85-11.73 48.65-10.21 48.45-8.68 48.45-6.77L48.45-6.77Q48.45-5.54 48.57-4.56 48.68-3.59 48.92-2.9 49.15-2.22 49.5-1.86 49.85-1.5 50.32-1.5L50.32-1.5Q50.79-1.5 51.15-1.89 51.52-2.28 51.79-2.94 52.06-3.6 52.26-4.47 52.46-5.35 52.58-6.31 52.7-7.27 52.75-8.27 52.81-9.27 52.81-10.17ZM69.05 0.21L65.23 0.15Q65.26-0.44 65.3-0.98 65.33-1.51 65.38-2.01L65.38-2.01Q64.88-1.13 64.31-0.66 63.75-0.19 63.26 0.04L63.26 0.04Q62.69 0.31 62.13 0.37L62.13 0.37Q61.04 0.37 60.23-0.18 59.43-0.72 58.9-1.72 58.37-2.72 58.11-4.12 57.85-5.53 57.85-7.26L57.85-7.26Q57.85-9.68 58.01-11.96 58.16-14.24 58.52-16.43L58.52-16.43 62.25-16.02Q61.9-14.27 61.71-12.89 61.53-11.52 61.44-10.55L61.44-10.55Q61.34-9.42 61.32-8.58L61.32-8.58Q61.32-7.19 61.41-6.15 61.5-5.11 61.73-4.43 61.95-3.75 62.35-3.41 62.75-3.07 63.36-3.07L63.36-3.07Q63.79-3.14 64.2-3.66L64.2-3.66Q64.38-3.88 64.57-4.22 64.76-4.57 64.95-5.07 65.14-5.57 65.32-6.25 65.5-6.92 65.66-7.82L65.66-7.82Q65.69-8.68 65.69-9.54 65.69-10.4 65.69-11.4L65.69-11.4Q65.69-12.46 65.69-13.71 65.69-14.96 65.66-16.52L65.66-16.52 68.99-16.46Q68.92-15.34 68.88-14.39 68.83-13.45 68.81-12.62 68.79-11.79 68.77-11.05 68.76-10.32 68.76-9.63L68.76-9.63Q68.76-8.57 68.78-7.55 68.8-6.54 68.85-5.4 68.89-4.26 68.94-2.9 68.99-1.54 69.05 0.21L69.05 0.21ZM74.9 0.6L74.9 0.6 70.98 0.9Q71.21-1.73 71.32-4.18 71.43-6.63 71.43-9.08L71.43-9.08Q71.43-10.82 71.38-12.56 71.33-14.3 71.2-16.14L71.2-16.14 74.5-16.31Q74.47-15.99 74.46-15.68 74.44-15.37 74.44-15.08L74.44-15.08Q74.96-15.87 75.57-16.32 76.18-16.77 76.71-16.97L76.71-16.97Q77.31-17.22 77.93-17.28L77.93-17.28Q79-17.28 79.76-16.95 80.53-16.62 81.01-16.1 81.5-15.58 81.72-14.94 81.94-14.3 81.94-13.7L81.94-13.7Q81.94-13.08 81.81-12.45 81.67-11.81 81.36-11.31 81.04-10.8 80.52-10.48 80-10.17 79.24-10.17L79.24-10.17Q78.47-10.17 78.03-10.45 77.59-10.73 77.36-11.12 77.13-11.51 77.07-11.92 77-12.34 77-12.64L77-12.64Q77-12.84 77.08-13.1 77.15-13.36 77.3-13.62 77.44-13.89 77.66-14.14 77.88-14.4 78.18-14.62L78.18-14.62Q78.09-14.65 77.99-14.67 77.9-14.68 77.81-14.68L77.81-14.68Q77.08-14.68 76.5-14.22 75.93-13.75 75.51-12.93 75.09-12.11 74.82-10.99 74.55-9.88 74.42-8.55L74.42-8.55Q74.49-6.27 74.62-4.04 74.75-1.81 74.9 0.6ZM93.14-13.24L93.14-13.24Q93.14-12.56 92.89-12.09 92.64-11.62 92.28-11.33 91.93-11.04 91.55-10.9 91.17-10.77 90.9-10.77L90.9-10.77Q90.64-10.77 90.27-10.87 89.9-10.96 89.57-11.21 89.24-11.46 89.01-11.88 88.77-12.3 88.77-12.95L88.77-12.95Q88.79-13.3 88.9-13.64L88.9-13.64Q89.01-13.93 89.22-14.25 89.43-14.56 89.83-14.81L89.83-14.81Q89.57-15.19 89.3-15.4 89.04-15.61 88.83-15.71L88.83-15.71Q88.58-15.83 88.38-15.86L88.38-15.86Q87.92-15.86 87.55-15.67 87.19-15.49 86.93-15.19 86.67-14.89 86.53-14.49 86.39-14.09 86.39-13.67L86.39-13.67Q86.39-13.12 86.47-12.68 86.54-12.24 86.8-11.79 87.07-11.33 87.6-10.8 88.13-10.27 89.04-9.57L89.04-9.57Q89.95-8.86 90.62-8.19 91.3-7.52 91.74-6.88 92.18-6.23 92.4-5.58 92.62-4.92 92.62-4.22L92.62-4.22Q92.62-3.75 92.53-3.2 92.43-2.65 92.2-2.08 91.98-1.51 91.6-0.99 91.23-0.47 90.68-0.06 90.12 0.35 89.38 0.6 88.64 0.84 87.68 0.84L87.68 0.84Q86.24 0.84 85.23 0.41 84.22-0.01 83.56-0.62 82.91-1.23 82.61-1.91 82.31-2.59 82.31-3.1L82.31-3.1Q82.31-3.64 82.44-4.11 82.57-4.58 82.86-4.94 83.14-5.29 83.59-5.49 84.04-5.69 84.67-5.69L84.67-5.69Q85.2-5.69 85.63-5.53 86.07-5.36 86.38-5.05 86.7-4.73 86.88-4.28 87.05-3.82 87.05-3.25L87.05-3.25Q87.04-3 86.95-2.73L86.95-2.73Q86.88-2.51 86.7-2.25 86.52-1.98 86.22-1.75L86.22-1.75Q86.42-1.59 86.62-1.51 86.82-1.43 86.98-1.4L86.98-1.4Q87.16-1.35 87.33-1.35L87.33-1.35Q87.52-1.35 87.78-1.46 88.04-1.57 88.27-1.81 88.51-2.04 88.67-2.38 88.83-2.72 88.83-3.19L88.83-3.19Q88.83-3.66 88.75-4.05 88.67-4.44 88.41-4.86 88.16-5.28 87.67-5.78 87.19-6.27 86.39-6.98L86.39-6.98Q85.6-7.69 84.98-8.35 84.36-9.02 83.95-9.74 83.53-10.46 83.31-11.26 83.09-12.05 83.09-13.01L83.09-13.01Q83.09-13.95 83.46-14.83 83.83-15.71 84.53-16.39 85.22-17.08 86.2-17.48 87.19-17.88 88.4-17.88L88.4-17.88Q89.64-17.88 90.54-17.5 91.43-17.12 92.01-16.48 92.58-15.84 92.86-15 93.14-14.17 93.14-13.24ZM105.11-3.16L105.11-3.16Q105.11-2.29 104.72-1.53 104.32-0.76 103.64-0.21 102.97 0.35 102.06 0.68 101.15 1 100.12 1L100.12 1Q99.43 1 98.72 0.81 98.02 0.62 97.37 0.18 96.72-0.26 96.15-0.98 95.58-1.7 95.16-2.75 94.74-3.79 94.5-5.19 94.25-6.6 94.25-8.42L94.25-8.42Q94.25-10.14 94.5-11.46 94.74-12.78 95.16-13.77 95.58-14.75 96.13-15.42 96.69-16.09 97.33-16.51 97.97-16.93 98.65-17.1 99.34-17.28 100-17.28L100-17.28Q100.98-17.28 101.87-16.97 102.75-16.65 103.41-16.03 104.07-15.42 104.46-14.51 104.85-13.61 104.85-12.43L104.85-12.43Q104.85-11.37 104.42-10.29 103.98-9.21 103.13-8.25 102.28-7.29 101.02-6.5 99.76-5.72 98.13-5.26L98.13-5.26Q98.22-4.35 98.39-3.6 98.56-2.85 98.82-2.32 99.07-1.79 99.42-1.5 99.76-1.2 100.22-1.2L100.22-1.2Q100.51-1.22 100.78-1.31L100.78-1.31Q101.01-1.38 101.26-1.54 101.5-1.7 101.66-2.01L101.66-2.01Q101.28-2.19 101.07-2.47 100.87-2.75 100.76-3L100.76-3Q100.65-3.29 100.63-3.61L100.63-3.61Q100.63-4.32 100.91-4.76 101.19-5.2 101.57-5.45 101.95-5.7 102.35-5.8 102.75-5.89 102.98-5.89L102.98-5.89Q103.23-5.89 103.59-5.79 103.95-5.69 104.29-5.39 104.63-5.1 104.87-4.56 105.11-4.03 105.11-3.16ZM101.48-12.4L101.48-12.4Q101.48-12.93 101.39-13.41 101.29-13.89 101.11-14.24 100.93-14.59 100.65-14.81 100.38-15.02 100.03-15.02L100.03-15.02Q99.43-15.02 99.04-14.47 98.66-13.92 98.43-13.01 98.19-12.09 98.1-10.9 98.02-9.71 98.02-8.42L98.02-8.42 98.02-7.35Q98.76-7.74 99.4-8.29 100.04-8.83 100.51-9.49 100.97-10.14 101.23-10.87 101.48-11.61 101.48-12.4ZM123.72-3.37L123.72-3.37Q123.7-3.29 123.7-3.2L123.7-3.2Q123.69-3.13 123.69-3.01 123.69-2.89 123.69-2.73L123.69-2.73Q123.69-2.34 123.72-1.64 123.75-0.94 123.86 0.03L123.86 0.03Q122.66 0 121.62 0 120.57 0 119.65 0L119.65 0Q117.81 0 116.52 0.03 115.22 0.06 114.39 0.09L114.39 0.09Q113.42 0.13 112.78 0.18L112.78 0.18Q112.77 0.13 112.77 0.06L112.77 0.06Q112.75 0 112.75-0.09 112.75-0.18 112.75-0.29L112.75-0.29Q112.75-0.79 112.87-1.7 112.99-2.62 113.39-3.77 113.8-4.92 114.6-6.22 115.4-7.51 116.77-8.79L116.77-8.79Q117.57-9.55 118.28-10.35 118.99-11.14 119.51-12.02 120.04-12.9 120.34-13.91 120.65-14.92 120.65-16.11L120.65-16.11Q120.65-17.08 120.45-17.71 120.26-18.35 119.93-18.73 119.6-19.1 119.17-19.26 118.74-19.41 118.24-19.41L118.24-19.41Q118.02-19.4 117.79-19.34L117.79-19.34Q117.6-19.28 117.37-19.16 117.13-19.04 116.91-18.84L116.91-18.84Q117.13-18.55 117.26-18.22 117.38-17.9 117.46-17.62L117.46-17.62Q117.53-17.3 117.55-16.97L117.55-16.97Q117.55-16.46 117.34-16.08 117.13-15.69 116.82-15.43 116.5-15.17 116.12-15.03 115.74-14.9 115.37-14.9L115.37-14.9Q115.09-14.9 114.63-14.98 114.17-15.06 113.72-15.36 113.28-15.65 112.96-16.22 112.64-16.8 112.64-17.78L112.64-17.78Q112.64-18.75 113.09-19.54 113.53-20.32 114.29-20.89 115.05-21.45 116.05-21.76 117.05-22.06 118.15-22.06L118.15-22.06Q119.23-22.06 120.31-21.68 121.38-21.29 122.23-20.53 123.07-19.76 123.6-18.63 124.13-17.49 124.13-15.97L124.13-15.97Q124.13-14.14 123.62-12.73 123.11-11.33 122.35-10.22 121.59-9.11 120.68-8.21 119.78-7.3 118.99-6.47L118.99-6.47Q117.93-5.36 117.36-4.34 116.8-3.32 116.55-2.62L116.55-2.62Q118.04-2.66 119.35-2.78 120.66-2.89 121.63-3.01 122.6-3.13 123.16-3.23 123.72-3.34 123.72-3.37ZM129.58-1.38L129.58-1.38Q129.58-0.98 129.43-0.64 129.27-0.29 129.01-0.03 128.76 0.24 128.4 0.39 128.05 0.54 127.66 0.54L127.66 0.54Q127.26 0.54 126.9 0.39 126.54 0.24 126.27-0.03 126.01-0.29 125.86-0.64 125.7-0.98 125.7-1.38L125.7-1.38Q125.7-1.79 125.86-2.15 126.01-2.5 126.27-2.76 126.54-3.03 126.9-3.18 127.26-3.34 127.66-3.34L127.66-3.34Q128.05-3.34 128.4-3.18 128.76-3.03 129.01-2.76 129.27-2.5 129.43-2.15 129.58-1.79 129.58-1.38ZM144.22-10.54L144.22-10.54Q144.22-8.19 143.82-6.17 143.42-4.16 142.61-2.68 141.81-1.2 140.57-0.36 139.34 0.48 137.66 0.48L137.66 0.48Q135.96 0.48 134.72-0.36 133.47-1.2 132.67-2.68 131.87-4.16 131.48-6.17 131.09-8.19 131.09-10.54L131.09-10.54Q131.09-12.87 131.47-14.88 131.84-16.88 132.64-18.36 133.43-19.84 134.67-20.68 135.91-21.51 137.66-21.51L137.66-21.51Q139.46-21.51 140.7-20.68 141.95-19.84 142.73-18.36 143.51-16.88 143.86-14.88 144.22-12.87 144.22-10.54ZM140.37-10.54L140.37-10.54Q140.37-12.84 140.17-14.47 139.97-16.09 139.62-17.1 139.26-18.12 138.76-18.58 138.26-19.04 137.66-19.04L137.66-19.04Q137.1-19.04 136.62-18.49 136.13-17.94 135.76-16.87 135.38-15.8 135.17-14.2 134.96-12.61 134.96-10.54L134.96-10.54Q134.96-8.27 135.15-6.66 135.34-5.04 135.69-4 136.05-2.97 136.55-2.48 137.05-1.98 137.66-1.98L137.66-1.98Q138.24-1.98 138.73-2.44 139.22-2.89 139.59-3.91 139.95-4.92 140.16-6.55 140.37-8.19 140.37-10.54Z" transform="translate(-1.1200000047683716, 22.90999984741211)"/></g> </g></g> <g fill-rule="" class="tp-slogan iconsvg-slogansvg" fill="#ffffff" transform="translate(5.187995910644531,29.90999984741211)"> <g mask="url(#20a345da-47fc-40ac-a022-8e4ad820a55d)"><g><rect stroke-width="2" class="i-icon-bg" x="0" y="0" width="132.72401428222656" height="8.172000408172607" fill-opacity="1"/> </g> <g transform="translate(5,2)"><g transform="scale(1, 1)" fill="#333333"><g transform="scale(0.6999999999999997)"><path d="M1.98-5.13L1.98 0L2.71 0L2.71-5.13L4.45-5.13L4.45-5.74L0.25-5.74L0.25-5.13ZM5.38-5.74L5.38 0L6.11 0L6.11-2.70L8.78-2.70L8.78 0L9.51 0L9.51-5.74L8.78-5.74L8.78-3.33L6.11-3.33L6.11-5.74ZM10.99-5.74L10.99 0L14.38 0L14.38-0.62L11.71-0.62L11.71-2.70L13.89-2.70L13.89-3.33L11.71-3.33L11.71-5.13L14.29-5.13L14.29-5.74ZM17.17-5.74L17.17 0L17.86 0L17.86-3.00C17.86-3.31 17.85-3.61 17.83-3.91C17.81-4.21 17.79-4.50 17.76-4.80L17.80-4.80L18.42-3.61L20.50 0L21.25 0L21.25-5.74L20.56-5.74L20.56-2.77C20.56-2.47 20.57-2.16 20.59-1.85C20.61-1.54 20.63-1.24 20.65-0.95L20.62-0.95L19.99-2.14L17.92-5.74ZM22.73-5.74L22.73 0L26.13 0L26.13-0.62L23.46-0.62L23.46-2.70L25.64-2.70L25.64-3.33L23.46-3.33L23.46-5.13L26.04-5.13L26.04-5.74ZM28.26-2.97L26.59 0L27.36 0L28.19-1.55C28.26-1.69 28.33-1.83 28.41-1.98C28.48-2.13 28.56-2.29 28.64-2.47L28.68-2.47C28.77-2.29 28.86-2.13 28.94-1.98C29.01-1.83 29.09-1.69 29.17-1.55L30.01 0L30.81 0L29.14-2.93L30.71-5.74L29.94-5.74L29.18-4.27C29.11-4.14 29.04-4.01 28.98-3.88C28.92-3.76 28.85-3.61 28.77-3.44L28.73-3.44C28.64-3.61 28.57-3.76 28.50-3.88C28.43-4.01 28.36-4.14 28.28-4.27L27.51-5.74L26.70-5.74ZM32.65-5.13L32.65 0L33.38 0L33.38-5.13L35.12-5.13L35.12-5.74L30.91-5.74L30.91-5.13ZM37.38-2.87C37.38-2.40 37.45-1.99 37.58-1.61C37.71-1.24 37.88-0.93 38.11-0.68C38.34-0.42 38.61-0.23 38.92-0.10C39.24 0.04 39.59 0.11 39.97 0.11C40.35 0.11 40.70 0.04 41.00-0.08C41.31-0.21 41.56-0.37 41.74-0.56L41.74-2.98L39.86-2.98L39.86-2.37L41.08-2.37L41.08-0.88C40.96-0.77 40.81-0.69 40.63-0.63C40.44-0.56 40.25-0.53 40.05-0.53C39.74-0.53 39.46-0.59 39.23-0.70C38.99-0.81 38.79-0.97 38.63-1.17C38.47-1.38 38.35-1.62 38.26-1.91C38.18-2.20 38.14-2.53 38.14-2.89C38.14-3.24 38.18-3.57 38.27-3.85C38.36-4.14 38.49-4.38 38.65-4.58C38.82-4.78 39.02-4.94 39.25-5.05C39.48-5.15 39.74-5.21 40.04-5.21C40.33-5.21 40.57-5.16 40.76-5.05C40.95-4.95 41.12-4.83 41.26-4.67L41.67-5.14C41.50-5.31 41.29-5.47 41.02-5.62C40.76-5.77 40.42-5.85 40.03-5.85C39.64-5.85 39.29-5.78 38.97-5.64C38.65-5.50 38.37-5.31 38.13-5.05C37.90-4.79 37.71-4.48 37.58-4.11C37.45-3.75 37.38-3.33 37.38-2.87ZM43.02-5.74L43.02 0L46.41 0L46.41-0.62L43.74-0.62L43.74-2.70L45.92-2.70L45.92-3.33L43.74-3.33L43.74-5.13L46.33-5.13L46.33-5.74ZM47.53-5.74L47.53 0L48.22 0L48.22-3.00C48.22-3.31 48.21-3.61 48.19-3.91C48.17-4.21 48.15-4.50 48.13-4.80L48.16-4.80L48.78-3.61L50.86 0L51.62 0L51.62-5.74L50.93-5.74L50.93-2.77C50.93-2.47 50.94-2.16 50.96-1.85C50.98-1.54 51.00-1.24 51.01-0.95L50.98-0.95L50.36-2.14L48.28-5.74ZM53.09-5.74L53.09 0L56.49 0L56.49-0.62L53.82-0.62L53.82-2.70L56.00-2.70L56.00-3.33L53.82-3.33L53.82-5.13L56.40-5.13L56.40-5.74ZM58.33-3.02L58.33-5.16L59.30-5.16C59.74-5.16 60.09-5.08 60.33-4.93C60.57-4.78 60.69-4.51 60.69-4.13C60.69-3.76 60.57-3.48 60.33-3.30C60.09-3.11 59.74-3.02 59.30-3.02ZM60.76 0L61.58 0L60.13-2.50C60.52-2.60 60.83-2.79 61.06-3.05C61.30-3.32 61.41-3.68 61.41-4.13C61.41-4.43 61.36-4.68 61.26-4.88C61.17-5.09 61.03-5.25 60.85-5.38C60.67-5.51 60.46-5.60 60.21-5.66C59.96-5.71 59.69-5.74 59.40-5.74L57.61-5.74L57.61 0L58.33 0L58.33-2.42L59.37-2.42ZM64.95-2.34L63.22-2.34L63.49-3.21C63.60-3.53 63.70-3.85 63.79-4.17C63.88-4.49 63.97-4.81 64.06-5.15L64.10-5.15C64.19-4.81 64.28-4.49 64.38-4.17C64.47-3.85 64.57-3.53 64.67-3.21ZM65.13-1.75L65.67 0L66.45 0L64.51-5.74L63.69-5.74L61.74 0L62.49 0L63.04-1.75ZM68.01-5.13L68.01 0L68.74 0L68.74-5.13L70.47-5.13L70.47-5.74L66.27-5.74L66.27-5.13ZM71.41-5.74L71.41 0L72.13 0L72.13-5.74ZM75.73 0.11C76.09 0.11 76.42 0.04 76.72-0.11C77.02-0.25 77.28-0.44 77.50-0.70C77.72-0.96 77.89-1.28 78.01-1.65C78.13-2.02 78.19-2.44 78.19-2.90C78.19-3.35 78.13-3.76 78.01-4.13C77.89-4.49 77.72-4.80 77.50-5.05C77.28-5.31 77.02-5.50 76.72-5.64C76.42-5.78 76.09-5.85 75.73-5.85C75.36-5.85 75.03-5.78 74.73-5.65C74.43-5.51 74.17-5.32 73.96-5.06C73.74-4.81 73.57-4.50 73.46-4.14C73.34-3.77 73.28-3.36 73.28-2.90C73.28-2.44 73.34-2.02 73.46-1.65C73.57-1.28 73.74-0.96 73.96-0.70C74.17-0.44 74.43-0.25 74.73-0.11C75.03 0.04 75.36 0.11 75.73 0.11ZM75.73-0.53C75.47-0.53 75.24-0.59 75.03-0.70C74.82-0.81 74.65-0.97 74.50-1.18C74.35-1.38 74.23-1.63 74.15-1.92C74.07-2.21 74.03-2.54 74.03-2.90C74.03-3.25 74.07-3.57 74.15-3.86C74.23-4.15 74.35-4.39 74.50-4.59C74.65-4.78 74.82-4.94 75.03-5.05C75.24-5.15 75.47-5.21 75.73-5.21C75.98-5.21 76.22-5.15 76.42-5.05C76.63-4.94 76.81-4.78 76.96-4.59C77.11-4.39 77.22-4.15 77.30-3.86C77.38-3.57 77.42-3.25 77.42-2.90C77.42-2.54 77.38-2.21 77.30-1.92C77.22-1.63 77.11-1.38 76.96-1.18C76.81-0.97 76.63-0.81 76.42-0.70C76.22-0.59 75.98-0.53 75.73-0.53ZM79.32-5.74L79.32 0L80.01 0L80.01-3.00C80.01-3.31 80.00-3.61 79.98-3.91C79.96-4.21 79.94-4.50 79.92-4.80L79.95-4.80L80.57-3.61L82.66 0L83.41 0L83.41-5.74L82.72-5.74L82.72-2.77C82.72-2.47 82.73-2.16 82.75-1.85C82.77-1.54 82.79-1.24 82.80-0.95L82.77-0.95L82.15-2.14L80.07-5.74ZM88.67 0.11C89.03 0.11 89.36 0.04 89.66-0.11C89.96-0.25 90.22-0.44 90.44-0.70C90.66-0.96 90.83-1.28 90.95-1.65C91.07-2.02 91.13-2.44 91.13-2.90C91.13-3.35 91.07-3.76 90.95-4.13C90.83-4.49 90.66-4.80 90.44-5.05C90.22-5.31 89.96-5.50 89.66-5.64C89.36-5.78 89.03-5.85 88.67-5.85C88.31-5.85 87.98-5.78 87.68-5.65C87.38-5.51 87.12-5.32 86.90-5.06C86.69-4.81 86.52-4.50 86.40-4.14C86.28-3.77 86.22-3.36 86.22-2.90C86.22-2.44 86.28-2.02 86.40-1.65C86.52-1.28 86.69-0.96 86.90-0.70C87.12-0.44 87.38-0.25 87.68-0.11C87.98 0.04 88.31 0.11 88.67 0.11ZM88.67-0.53C88.41-0.53 88.18-0.59 87.97-0.70C87.77-0.81 87.59-0.97 87.44-1.18C87.29-1.38 87.18-1.63 87.09-1.92C87.01-2.21 86.97-2.54 86.97-2.90C86.97-3.25 87.01-3.57 87.09-3.86C87.18-4.15 87.29-4.39 87.44-4.59C87.59-4.78 87.77-4.94 87.97-5.05C88.18-5.15 88.41-5.21 88.67-5.21C88.93-5.21 89.16-5.15 89.37-5.05C89.57-4.94 89.75-4.78 89.90-4.59C90.05-4.39 90.16-4.15 90.25-3.86C90.33-3.57 90.37-3.25 90.37-2.90C90.37-2.54 90.33-2.21 90.25-1.92C90.16-1.63 90.05-1.38 89.90-1.18C89.75-0.97 89.57-0.81 89.37-0.70C89.16-0.59 88.93-0.53 88.67-0.53ZM92.26-5.74L92.26 0L92.99 0L92.99-2.57L95.18-2.57L95.18-3.19L92.99-3.19L92.99-5.13L95.57-5.13L95.57-5.74ZM98.17-1.25L97.74-0.74C97.99-0.48 98.28-0.27 98.63-0.12C98.97 0.03 99.35 0.11 99.75 0.11C100.05 0.11 100.32 0.06 100.56-0.02C100.80-0.11 101.01-0.22 101.17-0.37C101.34-0.52 101.47-0.69 101.56-0.89C101.65-1.09 101.70-1.30 101.70-1.53C101.70-1.74 101.67-1.93 101.61-2.09C101.55-2.25 101.46-2.39 101.36-2.51C101.25-2.63 101.13-2.73 100.98-2.82C100.84-2.91 100.68-2.99 100.52-3.06L99.70-3.41C99.59-3.46 99.47-3.51 99.36-3.57C99.25-3.62 99.15-3.69 99.06-3.76C98.96-3.83 98.89-3.92 98.83-4.01C98.78-4.11 98.75-4.23 98.75-4.37C98.75-4.63 98.85-4.84 99.04-4.98C99.24-5.13 99.50-5.21 99.82-5.21C100.09-5.21 100.33-5.16 100.54-5.06C100.75-4.97 100.95-4.83 101.12-4.67L101.52-5.14C101.31-5.35 101.06-5.52 100.77-5.65C100.48-5.78 100.16-5.85 99.82-5.85C99.56-5.85 99.31-5.81 99.10-5.73C98.88-5.66 98.69-5.55 98.53-5.41C98.37-5.28 98.24-5.11 98.15-4.93C98.06-4.74 98.02-4.54 98.02-4.32C98.02-4.11 98.05-3.93 98.12-3.77C98.19-3.61 98.28-3.47 98.39-3.35C98.50-3.24 98.63-3.14 98.77-3.05C98.91-2.97 99.05-2.90 99.18-2.84L100.00-2.49C100.14-2.42 100.26-2.36 100.38-2.30C100.50-2.24 100.60-2.18 100.68-2.11C100.76-2.03 100.83-1.94 100.88-1.84C100.93-1.74 100.96-1.62 100.96-1.47C100.96-1.19 100.85-0.96 100.64-0.79C100.43-0.62 100.14-0.53 99.76-0.53C99.46-0.53 99.17-0.60 98.89-0.73C98.62-0.86 98.38-1.04 98.17-1.25ZM104.85 0.11C105.21 0.11 105.54 0.04 105.84-0.11C106.14-0.25 106.40-0.44 106.62-0.70C106.84-0.96 107.01-1.28 107.13-1.65C107.25-2.02 107.31-2.44 107.31-2.90C107.31-3.35 107.25-3.76 107.13-4.13C107.01-4.49 106.84-4.80 106.62-5.05C106.40-5.31 106.14-5.50 105.84-5.64C105.54-5.78 105.21-5.85 104.85-5.85C104.49-5.85 104.15-5.78 103.85-5.65C103.55-5.51 103.30-5.32 103.08-5.06C102.86-4.81 102.70-4.50 102.58-4.14C102.46-3.77 102.40-3.36 102.40-2.90C102.40-2.44 102.46-2.02 102.58-1.65C102.70-1.28 102.86-0.96 103.08-0.70C103.30-0.44 103.55-0.25 103.85-0.11C104.15 0.04 104.49 0.11 104.85 0.11ZM104.85-0.53C104.59-0.53 104.36-0.59 104.15-0.70C103.94-0.81 103.77-0.97 103.62-1.18C103.47-1.38 103.35-1.63 103.27-1.92C103.19-2.21 103.15-2.54 103.15-2.90C103.15-3.25 103.19-3.57 103.27-3.86C103.35-4.15 103.47-4.39 103.62-4.59C103.77-4.78 103.94-4.94 104.15-5.05C104.36-5.15 104.59-5.21 104.85-5.21C105.10-5.21 105.34-5.15 105.54-5.05C105.75-4.94 105.93-4.78 106.08-4.59C106.23-4.39 106.34-4.15 106.42-3.86C106.50-3.57 106.55-3.25 106.55-2.90C106.55-2.54 106.50-2.21 106.42-1.92C106.34-1.63 106.23-1.38 106.08-1.18C105.93-0.97 105.75-0.81 105.54-0.70C105.34-0.59 105.10-0.53 104.85-0.53ZM108.11-2.87C108.11-2.40 108.17-1.99 108.30-1.61C108.42-1.24 108.60-0.93 108.82-0.68C109.05-0.42 109.31-0.23 109.62-0.10C109.92 0.04 110.26 0.11 110.62 0.11C110.99 0.11 111.31 0.03 111.60-0.11C111.89-0.26 112.14-0.46 112.37-0.73L111.96-1.17C111.77-0.97 111.58-0.81 111.37-0.70C111.16-0.59 110.92-0.53 110.64-0.53C110.36-0.53 110.12-0.59 109.90-0.70C109.68-0.81 109.49-0.97 109.34-1.17C109.19-1.38 109.07-1.62 108.99-1.91C108.90-2.20 108.86-2.53 108.86-2.89C108.86-3.24 108.90-3.57 108.99-3.85C109.08-4.14 109.20-4.38 109.36-4.58C109.52-4.78 109.71-4.94 109.93-5.05C110.15-5.15 110.40-5.21 110.67-5.21C110.92-5.21 111.13-5.16 111.32-5.06C111.50-4.97 111.67-4.84 111.82-4.67L112.23-5.14C112.06-5.32 111.85-5.49 111.58-5.63C111.32-5.78 111.01-5.85 110.66-5.85C110.30-5.85 109.96-5.78 109.64-5.64C109.33-5.50 109.06-5.31 108.83-5.05C108.61-4.79 108.43-4.48 108.30-4.11C108.17-3.75 108.11-3.33 108.11-2.87ZM113.34-5.74L113.34 0L114.07 0L114.07-5.74ZM115.54-5.74L115.54 0L118.94 0L118.94-0.62L116.27-0.62L116.27-2.70L118.45-2.70L118.45-3.33L116.27-3.33L116.27-5.13L118.85-5.13L118.85-5.74ZM121.24-5.13L121.24 0L121.98 0L121.98-5.13L123.71-5.13L123.71-5.74L119.51-5.74L119.51-5.13ZM126.74-2.34L125.01-2.34L125.28-3.21C125.39-3.53 125.49-3.85 125.58-4.17C125.67-4.49 125.77-4.81 125.85-5.15L125.89-5.15C125.98-4.81 126.07-4.49 126.17-4.17C126.26-3.85 126.36-3.53 126.47-3.21ZM126.92-1.75L127.46 0L128.24 0L126.30-5.74L125.48-5.74L123.53 0L124.28 0L124.83-1.75ZM128.96-5.74L128.96 0L132.19 0L132.19-0.62L129.68-0.62L129.68-5.74ZM134.78-5.74L134.78 0L136.25 0C136.68 0 137.06-0.07 137.40-0.20C137.73-0.33 138.01-0.52 138.24-0.77C138.46-1.01 138.64-1.32 138.75-1.68C138.87-2.04 138.93-2.44 138.93-2.90C138.93-3.81 138.70-4.52 138.24-5.01C137.77-5.50 137.10-5.74 136.21-5.74ZM136.16-0.60L135.50-0.60L135.50-5.15L136.16-5.15C136.83-5.15 137.34-4.95 137.67-4.57C138.01-4.18 138.17-3.63 138.17-2.90C138.17-2.17 138.01-1.60 137.67-1.20C137.34-0.80 136.83-0.60 136.16-0.60ZM140.06-5.74L140.06 0L140.79 0L140.79-5.74ZM142.28-1.25L141.84-0.74C142.09-0.48 142.39-0.27 142.74-0.12C143.08 0.03 143.45 0.11 143.86 0.11C144.16 0.11 144.43 0.06 144.67-0.02C144.91-0.11 145.11-0.22 145.28-0.37C145.45-0.52 145.58-0.69 145.67-0.89C145.76-1.09 145.81-1.30 145.81-1.53C145.81-1.74 145.78-1.93 145.72-2.09C145.65-2.25 145.57-2.39 145.47-2.51C145.36-2.63 145.24-2.73 145.09-2.82C144.94-2.91 144.79-2.99 144.63-3.06L143.81-3.41C143.70-3.46 143.58-3.51 143.47-3.57C143.36-3.62 143.26-3.69 143.16-3.76C143.07-3.83 143.00-3.92 142.94-4.01C142.89-4.11 142.86-4.23 142.86-4.37C142.86-4.63 142.96-4.84 143.15-4.98C143.35-5.13 143.61-5.21 143.93-5.21C144.19-5.21 144.44-5.16 144.65-5.06C144.86-4.97 145.06-4.83 145.23-4.67L145.62-5.14C145.42-5.35 145.17-5.52 144.88-5.65C144.59-5.78 144.27-5.85 143.93-5.85C143.66-5.85 143.42-5.81 143.20-5.73C142.99-5.66 142.80-5.55 142.64-5.41C142.47-5.28 142.35-5.11 142.26-4.93C142.17-4.74 142.12-4.54 142.12-4.32C142.12-4.11 142.16-3.93 142.23-3.77C142.30-3.61 142.39-3.47 142.50-3.35C142.61-3.24 142.74-3.14 142.88-3.05C143.02-2.97 143.15-2.90 143.29-2.84L144.11-2.49C144.24-2.42 144.37-2.36 144.49-2.30C144.60-2.24 144.70-2.18 144.79-2.11C144.87-2.03 144.94-1.94 144.99-1.84C145.04-1.74 145.06-1.62 145.06-1.47C145.06-1.19 144.96-0.96 144.75-0.79C144.54-0.62 144.24-0.53 143.86-0.53C143.57-0.53 143.28-0.60 143.00-0.73C142.73-0.86 142.48-1.04 142.28-1.25ZM146.50-2.87C146.50-2.40 146.57-1.99 146.69-1.61C146.82-1.24 146.99-0.93 147.22-0.68C147.44-0.42 147.71-0.23 148.01-0.10C148.32 0.04 148.65 0.11 149.02 0.11C149.38 0.11 149.71 0.03 150.00-0.11C150.28-0.26 150.54-0.46 150.77-0.73L150.36-1.17C150.17-0.97 149.97-0.81 149.76-0.70C149.56-0.59 149.31-0.53 149.03-0.53C148.76-0.53 148.51-0.59 148.29-0.70C148.08-0.81 147.89-0.97 147.74-1.17C147.59-1.38 147.47-1.62 147.38-1.91C147.30-2.20 147.26-2.53 147.26-2.89C147.26-3.24 147.30-3.57 147.39-3.85C147.48-4.14 147.60-4.38 147.76-4.58C147.91-4.78 148.10-4.94 148.32-5.05C148.55-5.15 148.79-5.21 149.07-5.21C149.31-5.21 149.53-5.16 149.71-5.06C149.90-4.97 150.06-4.84 150.22-4.67L150.63-5.14C150.46-5.32 150.24-5.49 149.98-5.63C149.72-5.78 149.41-5.85 149.06-5.85C148.69-5.85 148.35-5.78 148.04-5.64C147.73-5.50 147.46-5.31 147.23-5.05C147.00-4.79 146.83-4.48 146.70-4.11C146.57-3.75 146.50-3.33 146.50-2.87ZM153.60 0.11C153.96 0.11 154.29 0.04 154.59-0.11C154.89-0.25 155.15-0.44 155.37-0.70C155.59-0.96 155.76-1.28 155.88-1.65C156.00-2.02 156.06-2.44 156.06-2.90C156.06-3.35 156.00-3.76 155.88-4.13C155.76-4.49 155.59-4.80 155.37-5.05C155.15-5.31 154.89-5.50 154.59-5.64C154.29-5.78 153.96-5.85 153.60-5.85C153.24-5.85 152.91-5.78 152.61-5.65C152.31-5.51 152.05-5.32 151.83-5.06C151.62-4.81 151.45-4.50 151.33-4.14C151.21-3.77 151.15-3.36 151.15-2.90C151.15-2.44 151.21-2.02 151.33-1.65C151.45-1.28 151.62-0.96 151.83-0.70C152.05-0.44 152.31-0.25 152.61-0.11C152.91 0.04 153.24 0.11 153.60 0.11ZM153.60-0.53C153.34-0.53 153.11-0.59 152.90-0.70C152.70-0.81 152.52-0.97 152.37-1.18C152.22-1.38 152.11-1.63 152.02-1.92C151.94-2.21 151.90-2.54 151.90-2.90C151.90-3.25 151.94-3.57 152.02-3.86C152.11-4.15 152.22-4.39 152.37-4.59C152.52-4.78 152.70-4.94 152.90-5.05C153.11-5.15 153.34-5.21 153.60-5.21C153.86-5.21 154.09-5.15 154.29-5.05C154.50-4.94 154.68-4.78 154.83-4.59C154.98-4.39 155.09-4.15 155.17-3.86C155.26-3.57 155.30-3.25 155.30-2.90C155.30-2.54 155.26-2.21 155.17-1.92C155.09-1.63 154.98-1.38 154.83-1.18C154.68-0.97 154.50-0.81 154.29-0.70C154.09-0.59 153.86-0.53 153.60-0.53ZM157.17-5.74L157.17-2.37C157.17-1.91 157.22-1.52 157.32-1.21C157.43-0.89 157.57-0.64 157.76-0.44C157.94-0.25 158.16-0.11 158.41-0.02C158.67 0.06 158.94 0.11 159.23 0.11C159.52 0.11 159.80 0.06 160.05-0.02C160.30-0.11 160.51-0.25 160.70-0.44C160.88-0.64 161.03-0.89 161.13-1.21C161.24-1.52 161.29-1.91 161.29-2.37L161.29-5.74L160.59-5.74L160.59-2.35C160.59-2.01 160.55-1.72 160.48-1.49C160.41-1.25 160.32-1.07 160.19-0.93C160.07-0.79 159.93-0.69 159.77-0.63C159.60-0.56 159.42-0.53 159.23-0.53C159.05-0.53 158.87-0.56 158.71-0.63C158.54-0.69 158.40-0.79 158.28-0.93C158.16-1.07 158.07-1.25 158.00-1.49C157.93-1.72 157.89-2.01 157.89-2.35L157.89-5.74ZM163.46-3.02L163.46-5.16L164.43-5.16C164.88-5.16 165.22-5.08 165.46-4.93C165.70-4.78 165.82-4.51 165.82-4.13C165.82-3.76 165.70-3.48 165.46-3.30C165.22-3.11 164.88-3.02 164.43-3.02ZM165.89 0L166.71 0L165.26-2.50C165.65-2.60 165.96-2.79 166.20-3.05C166.43-3.32 166.55-3.68 166.55-4.13C166.55-4.43 166.50-4.68 166.40-4.88C166.30-5.09 166.16-5.25 165.98-5.38C165.80-5.51 165.59-5.60 165.34-5.66C165.09-5.71 164.82-5.74 164.53-5.74L162.74-5.74L162.74 0L163.46 0L163.46-2.42L164.51-2.42ZM167.62-1.25L167.18-0.74C167.43-0.48 167.73-0.27 168.07-0.12C168.42 0.03 168.79 0.11 169.19 0.11C169.50 0.11 169.77 0.06 170.01-0.02C170.25-0.11 170.45-0.22 170.62-0.37C170.79-0.52 170.92-0.69 171.01-0.89C171.10-1.09 171.15-1.30 171.15-1.53C171.15-1.74 171.12-1.93 171.05-2.09C170.99-2.25 170.91-2.39 170.80-2.51C170.70-2.63 170.57-2.73 170.43-2.82C170.28-2.91 170.13-2.99 169.96-3.06L169.15-3.41C169.03-3.46 168.92-3.51 168.81-3.57C168.70-3.62 168.60-3.69 168.50-3.76C168.41-3.83 168.33-3.92 168.28-4.01C168.22-4.11 168.20-4.23 168.20-4.37C168.20-4.63 168.29-4.84 168.49-4.98C168.68-5.13 168.94-5.21 169.26-5.21C169.53-5.21 169.77-5.16 169.99-5.06C170.20-4.97 170.39-4.83 170.57-4.67L170.96-5.14C170.76-5.35 170.51-5.52 170.22-5.65C169.93-5.78 169.61-5.85 169.26-5.85C169.00-5.85 168.76-5.81 168.54-5.73C168.32-5.66 168.13-5.55 167.97-5.41C167.81-5.28 167.69-5.11 167.60-4.93C167.51-4.74 167.46-4.54 167.46-4.32C167.46-4.11 167.50-3.93 167.57-3.77C167.64-3.61 167.73-3.47 167.84-3.35C167.95-3.24 168.07-3.14 168.21-3.05C168.35-2.97 168.49-2.90 168.63-2.84L169.45-2.49C169.58-2.42 169.71-2.36 169.82-2.30C169.94-2.24 170.04-2.18 170.13-2.11C170.21-2.03 170.28-1.94 170.33-1.84C170.38-1.74 170.40-1.62 170.40-1.47C170.40-1.19 170.30-0.96 170.09-0.79C169.88-0.62 169.58-0.53 169.20-0.53C168.91-0.53 168.62-0.60 168.34-0.73C168.06-0.86 167.82-1.04 167.62-1.25ZM172.18-5.74L172.18 0L175.57 0L175.57-0.62L172.90-0.62L172.90-2.70L175.08-2.70L175.08-3.33L172.90-3.33L172.90-5.13L175.48-5.13L175.48-5.74Z" transform="translate(-0.24507658643326044, 5.846827133479213)"/></g></g></g></g></g></g></g><mask id="20a345da-47fc-40ac-a022-8e4ad820a55d"><g fill="white"><rect stroke-width="2" class="i-icon-bg" x="0" y="0" width="132.72401428222656" height="8.172000408172607" fill-opacity="1"/> </g> <g transform="translate(5,2)" fill="black"><g transform="scale(1, 1)"><g transform="scale(0.6999999999999997)"><path d="M1.98-5.13L1.98 0L2.71 0L2.71-5.13L4.45-5.13L4.45-5.74L0.25-5.74L0.25-5.13ZM5.38-5.74L5.38 0L6.11 0L6.11-2.70L8.78-2.70L8.78 0L9.51 0L9.51-5.74L8.78-5.74L8.78-3.33L6.11-3.33L6.11-5.74ZM10.99-5.74L10.99 0L14.38 0L14.38-0.62L11.71-0.62L11.71-2.70L13.89-2.70L13.89-3.33L11.71-3.33L11.71-5.13L14.29-5.13L14.29-5.74ZM17.17-5.74L17.17 0L17.86 0L17.86-3.00C17.86-3.31 17.85-3.61 17.83-3.91C17.81-4.21 17.79-4.50 17.76-4.80L17.80-4.80L18.42-3.61L20.50 0L21.25 0L21.25-5.74L20.56-5.74L20.56-2.77C20.56-2.47 20.57-2.16 20.59-1.85C20.61-1.54 20.63-1.24 20.65-0.95L20.62-0.95L19.99-2.14L17.92-5.74ZM22.73-5.74L22.73 0L26.13 0L26.13-0.62L23.46-0.62L23.46-2.70L25.64-2.70L25.64-3.33L23.46-3.33L23.46-5.13L26.04-5.13L26.04-5.74ZM28.26-2.97L26.59 0L27.36 0L28.19-1.55C28.26-1.69 28.33-1.83 28.41-1.98C28.48-2.13 28.56-2.29 28.64-2.47L28.68-2.47C28.77-2.29 28.86-2.13 28.94-1.98C29.01-1.83 29.09-1.69 29.17-1.55L30.01 0L30.81 0L29.14-2.93L30.71-5.74L29.94-5.74L29.18-4.27C29.11-4.14 29.04-4.01 28.98-3.88C28.92-3.76 28.85-3.61 28.77-3.44L28.73-3.44C28.64-3.61 28.57-3.76 28.50-3.88C28.43-4.01 28.36-4.14 28.28-4.27L27.51-5.74L26.70-5.74ZM32.65-5.13L32.65 0L33.38 0L33.38-5.13L35.12-5.13L35.12-5.74L30.91-5.74L30.91-5.13ZM37.38-2.87C37.38-2.40 37.45-1.99 37.58-1.61C37.71-1.24 37.88-0.93 38.11-0.68C38.34-0.42 38.61-0.23 38.92-0.10C39.24 0.04 39.59 0.11 39.97 0.11C40.35 0.11 40.70 0.04 41.00-0.08C41.31-0.21 41.56-0.37 41.74-0.56L41.74-2.98L39.86-2.98L39.86-2.37L41.08-2.37L41.08-0.88C40.96-0.77 40.81-0.69 40.63-0.63C40.44-0.56 40.25-0.53 40.05-0.53C39.74-0.53 39.46-0.59 39.23-0.70C38.99-0.81 38.79-0.97 38.63-1.17C38.47-1.38 38.35-1.62 38.26-1.91C38.18-2.20 38.14-2.53 38.14-2.89C38.14-3.24 38.18-3.57 38.27-3.85C38.36-4.14 38.49-4.38 38.65-4.58C38.82-4.78 39.02-4.94 39.25-5.05C39.48-5.15 39.74-5.21 40.04-5.21C40.33-5.21 40.57-5.16 40.76-5.05C40.95-4.95 41.12-4.83 41.26-4.67L41.67-5.14C41.50-5.31 41.29-5.47 41.02-5.62C40.76-5.77 40.42-5.85 40.03-5.85C39.64-5.85 39.29-5.78 38.97-5.64C38.65-5.50 38.37-5.31 38.13-5.05C37.90-4.79 37.71-4.48 37.58-4.11C37.45-3.75 37.38-3.33 37.38-2.87ZM43.02-5.74L43.02 0L46.41 0L46.41-0.62L43.74-0.62L43.74-2.70L45.92-2.70L45.92-3.33L43.74-3.33L43.74-5.13L46.33-5.13L46.33-5.74ZM47.53-5.74L47.53 0L48.22 0L48.22-3.00C48.22-3.31 48.21-3.61 48.19-3.91C48.17-4.21 48.15-4.50 48.13-4.80L48.16-4.80L48.78-3.61L50.86 0L51.62 0L51.62-5.74L50.93-5.74L50.93-2.77C50.93-2.47 50.94-2.16 50.96-1.85C50.98-1.54 51.00-1.24 51.01-0.95L50.98-0.95L50.36-2.14L48.28-5.74ZM53.09-5.74L53.09 0L56.49 0L56.49-0.62L53.82-0.62L53.82-2.70L56.00-2.70L56.00-3.33L53.82-3.33L53.82-5.13L56.40-5.13L56.40-5.74ZM58.33-3.02L58.33-5.16L59.30-5.16C59.74-5.16 60.09-5.08 60.33-4.93C60.57-4.78 60.69-4.51 60.69-4.13C60.69-3.76 60.57-3.48 60.33-3.30C60.09-3.11 59.74-3.02 59.30-3.02ZM60.76 0L61.58 0L60.13-2.50C60.52-2.60 60.83-2.79 61.06-3.05C61.30-3.32 61.41-3.68 61.41-4.13C61.41-4.43 61.36-4.68 61.26-4.88C61.17-5.09 61.03-5.25 60.85-5.38C60.67-5.51 60.46-5.60 60.21-5.66C59.96-5.71 59.69-5.74 59.40-5.74L57.61-5.74L57.61 0L58.33 0L58.33-2.42L59.37-2.42ZM64.95-2.34L63.22-2.34L63.49-3.21C63.60-3.53 63.70-3.85 63.79-4.17C63.88-4.49 63.97-4.81 64.06-5.15L64.10-5.15C64.19-4.81 64.28-4.49 64.38-4.17C64.47-3.85 64.57-3.53 64.67-3.21ZM65.13-1.75L65.67 0L66.45 0L64.51-5.74L63.69-5.74L61.74 0L62.49 0L63.04-1.75ZM68.01-5.13L68.01 0L68.74 0L68.74-5.13L70.47-5.13L70.47-5.74L66.27-5.74L66.27-5.13ZM71.41-5.74L71.41 0L72.13 0L72.13-5.74ZM75.73 0.11C76.09 0.11 76.42 0.04 76.72-0.11C77.02-0.25 77.28-0.44 77.50-0.70C77.72-0.96 77.89-1.28 78.01-1.65C78.13-2.02 78.19-2.44 78.19-2.90C78.19-3.35 78.13-3.76 78.01-4.13C77.89-4.49 77.72-4.80 77.50-5.05C77.28-5.31 77.02-5.50 76.72-5.64C76.42-5.78 76.09-5.85 75.73-5.85C75.36-5.85 75.03-5.78 74.73-5.65C74.43-5.51 74.17-5.32 73.96-5.06C73.74-4.81 73.57-4.50 73.46-4.14C73.34-3.77 73.28-3.36 73.28-2.90C73.28-2.44 73.34-2.02 73.46-1.65C73.57-1.28 73.74-0.96 73.96-0.70C74.17-0.44 74.43-0.25 74.73-0.11C75.03 0.04 75.36 0.11 75.73 0.11ZM75.73-0.53C75.47-0.53 75.24-0.59 75.03-0.70C74.82-0.81 74.65-0.97 74.50-1.18C74.35-1.38 74.23-1.63 74.15-1.92C74.07-2.21 74.03-2.54 74.03-2.90C74.03-3.25 74.07-3.57 74.15-3.86C74.23-4.15 74.35-4.39 74.50-4.59C74.65-4.78 74.82-4.94 75.03-5.05C75.24-5.15 75.47-5.21 75.73-5.21C75.98-5.21 76.22-5.15 76.42-5.05C76.63-4.94 76.81-4.78 76.96-4.59C77.11-4.39 77.22-4.15 77.30-3.86C77.38-3.57 77.42-3.25 77.42-2.90C77.42-2.54 77.38-2.21 77.30-1.92C77.22-1.63 77.11-1.38 76.96-1.18C76.81-0.97 76.63-0.81 76.42-0.70C76.22-0.59 75.98-0.53 75.73-0.53ZM79.32-5.74L79.32 0L80.01 0L80.01-3.00C80.01-3.31 80.00-3.61 79.98-3.91C79.96-4.21 79.94-4.50 79.92-4.80L79.95-4.80L80.57-3.61L82.66 0L83.41 0L83.41-5.74L82.72-5.74L82.72-2.77C82.72-2.47 82.73-2.16 82.75-1.85C82.77-1.54 82.79-1.24 82.80-0.95L82.77-0.95L82.15-2.14L80.07-5.74ZM88.67 0.11C89.03 0.11 89.36 0.04 89.66-0.11C89.96-0.25 90.22-0.44 90.44-0.70C90.66-0.96 90.83-1.28 90.95-1.65C91.07-2.02 91.13-2.44 91.13-2.90C91.13-3.35 91.07-3.76 90.95-4.13C90.83-4.49 90.66-4.80 90.44-5.05C90.22-5.31 89.96-5.50 89.66-5.64C89.36-5.78 89.03-5.85 88.67-5.85C88.31-5.85 87.98-5.78 87.68-5.65C87.38-5.51 87.12-5.32 86.90-5.06C86.69-4.81 86.52-4.50 86.40-4.14C86.28-3.77 86.22-3.36 86.22-2.90C86.22-2.44 86.28-2.02 86.40-1.65C86.52-1.28 86.69-0.96 86.90-0.70C87.12-0.44 87.38-0.25 87.68-0.11C87.98 0.04 88.31 0.11 88.67 0.11ZM88.67-0.53C88.41-0.53 88.18-0.59 87.97-0.70C87.77-0.81 87.59-0.97 87.44-1.18C87.29-1.38 87.18-1.63 87.09-1.92C87.01-2.21 86.97-2.54 86.97-2.90C86.97-3.25 87.01-3.57 87.09-3.86C87.18-4.15 87.29-4.39 87.44-4.59C87.59-4.78 87.77-4.94 87.97-5.05C88.18-5.15 88.41-5.21 88.67-5.21C88.93-5.21 89.16-5.15 89.37-5.05C89.57-4.94 89.75-4.78 89.90-4.59C90.05-4.39 90.16-4.15 90.25-3.86C90.33-3.57 90.37-3.25 90.37-2.90C90.37-2.54 90.33-2.21 90.25-1.92C90.16-1.63 90.05-1.38 89.90-1.18C89.75-0.97 89.57-0.81 89.37-0.70C89.16-0.59 88.93-0.53 88.67-0.53ZM92.26-5.74L92.26 0L92.99 0L92.99-2.57L95.18-2.57L95.18-3.19L92.99-3.19L92.99-5.13L95.57-5.13L95.57-5.74ZM98.17-1.25L97.74-0.74C97.99-0.48 98.28-0.27 98.63-0.12C98.97 0.03 99.35 0.11 99.75 0.11C100.05 0.11 100.32 0.06 100.56-0.02C100.80-0.11 101.01-0.22 101.17-0.37C101.34-0.52 101.47-0.69 101.56-0.89C101.65-1.09 101.70-1.30 101.70-1.53C101.70-1.74 101.67-1.93 101.61-2.09C101.55-2.25 101.46-2.39 101.36-2.51C101.25-2.63 101.13-2.73 100.98-2.82C100.84-2.91 100.68-2.99 100.52-3.06L99.70-3.41C99.59-3.46 99.47-3.51 99.36-3.57C99.25-3.62 99.15-3.69 99.06-3.76C98.96-3.83 98.89-3.92 98.83-4.01C98.78-4.11 98.75-4.23 98.75-4.37C98.75-4.63 98.85-4.84 99.04-4.98C99.24-5.13 99.50-5.21 99.82-5.21C100.09-5.21 100.33-5.16 100.54-5.06C100.75-4.97 100.95-4.83 101.12-4.67L101.52-5.14C101.31-5.35 101.06-5.52 100.77-5.65C100.48-5.78 100.16-5.85 99.82-5.85C99.56-5.85 99.31-5.81 99.10-5.73C98.88-5.66 98.69-5.55 98.53-5.41C98.37-5.28 98.24-5.11 98.15-4.93C98.06-4.74 98.02-4.54 98.02-4.32C98.02-4.11 98.05-3.93 98.12-3.77C98.19-3.61 98.28-3.47 98.39-3.35C98.50-3.24 98.63-3.14 98.77-3.05C98.91-2.97 99.05-2.90 99.18-2.84L100.00-2.49C100.14-2.42 100.26-2.36 100.38-2.30C100.50-2.24 100.60-2.18 100.68-2.11C100.76-2.03 100.83-1.94 100.88-1.84C100.93-1.74 100.96-1.62 100.96-1.47C100.96-1.19 100.85-0.96 100.64-0.79C100.43-0.62 100.14-0.53 99.76-0.53C99.46-0.53 99.17-0.60 98.89-0.73C98.62-0.86 98.38-1.04 98.17-1.25ZM104.85 0.11C105.21 0.11 105.54 0.04 105.84-0.11C106.14-0.25 106.40-0.44 106.62-0.70C106.84-0.96 107.01-1.28 107.13-1.65C107.25-2.02 107.31-2.44 107.31-2.90C107.31-3.35 107.25-3.76 107.13-4.13C107.01-4.49 106.84-4.80 106.62-5.05C106.40-5.31 106.14-5.50 105.84-5.64C105.54-5.78 105.21-5.85 104.85-5.85C104.49-5.85 104.15-5.78 103.85-5.65C103.55-5.51 103.30-5.32 103.08-5.06C102.86-4.81 102.70-4.50 102.58-4.14C102.46-3.77 102.40-3.36 102.40-2.90C102.40-2.44 102.46-2.02 102.58-1.65C102.70-1.28 102.86-0.96 103.08-0.70C103.30-0.44 103.55-0.25 103.85-0.11C104.15 0.04 104.49 0.11 104.85 0.11ZM104.85-0.53C104.59-0.53 104.36-0.59 104.15-0.70C103.94-0.81 103.77-0.97 103.62-1.18C103.47-1.38 103.35-1.63 103.27-1.92C103.19-2.21 103.15-2.54 103.15-2.90C103.15-3.25 103.19-3.57 103.27-3.86C103.35-4.15 103.47-4.39 103.62-4.59C103.77-4.78 103.94-4.94 104.15-5.05C104.36-5.15 104.59-5.21 104.85-5.21C105.10-5.21 105.34-5.15 105.54-5.05C105.75-4.94 105.93-4.78 106.08-4.59C106.23-4.39 106.34-4.15 106.42-3.86C106.50-3.57 106.55-3.25 106.55-2.90C106.55-2.54 106.50-2.21 106.42-1.92C106.34-1.63 106.23-1.38 106.08-1.18C105.93-0.97 105.75-0.81 105.54-0.70C105.34-0.59 105.10-0.53 104.85-0.53ZM108.11-2.87C108.11-2.40 108.17-1.99 108.30-1.61C108.42-1.24 108.60-0.93 108.82-0.68C109.05-0.42 109.31-0.23 109.62-0.10C109.92 0.04 110.26 0.11 110.62 0.11C110.99 0.11 111.31 0.03 111.60-0.11C111.89-0.26 112.14-0.46 112.37-0.73L111.96-1.17C111.77-0.97 111.58-0.81 111.37-0.70C111.16-0.59 110.92-0.53 110.64-0.53C110.36-0.53 110.12-0.59 109.90-0.70C109.68-0.81 109.49-0.97 109.34-1.17C109.19-1.38 109.07-1.62 108.99-1.91C108.90-2.20 108.86-2.53 108.86-2.89C108.86-3.24 108.90-3.57 108.99-3.85C109.08-4.14 109.20-4.38 109.36-4.58C109.52-4.78 109.71-4.94 109.93-5.05C110.15-5.15 110.40-5.21 110.67-5.21C110.92-5.21 111.13-5.16 111.32-5.06C111.50-4.97 111.67-4.84 111.82-4.67L112.23-5.14C112.06-5.32 111.85-5.49 111.58-5.63C111.32-5.78 111.01-5.85 110.66-5.85C110.30-5.85 109.96-5.78 109.64-5.64C109.33-5.50 109.06-5.31 108.83-5.05C108.61-4.79 108.43-4.48 108.30-4.11C108.17-3.75 108.11-3.33 108.11-2.87ZM113.34-5.74L113.34 0L114.07 0L114.07-5.74ZM115.54-5.74L115.54 0L118.94 0L118.94-0.62L116.27-0.62L116.27-2.70L118.45-2.70L118.45-3.33L116.27-3.33L116.27-5.13L118.85-5.13L118.85-5.74ZM121.24-5.13L121.24 0L121.98 0L121.98-5.13L123.71-5.13L123.71-5.74L119.51-5.74L119.51-5.13ZM126.74-2.34L125.01-2.34L125.28-3.21C125.39-3.53 125.49-3.85 125.58-4.17C125.67-4.49 125.77-4.81 125.85-5.15L125.89-5.15C125.98-4.81 126.07-4.49 126.17-4.17C126.26-3.85 126.36-3.53 126.47-3.21ZM126.92-1.75L127.46 0L128.24 0L126.30-5.74L125.48-5.74L123.53 0L124.28 0L124.83-1.75ZM128.96-5.74L128.96 0L132.19 0L132.19-0.62L129.68-0.62L129.68-5.74ZM134.78-5.74L134.78 0L136.25 0C136.68 0 137.06-0.07 137.40-0.20C137.73-0.33 138.01-0.52 138.24-0.77C138.46-1.01 138.64-1.32 138.75-1.68C138.87-2.04 138.93-2.44 138.93-2.90C138.93-3.81 138.70-4.52 138.24-5.01C137.77-5.50 137.10-5.74 136.21-5.74ZM136.16-0.60L135.50-0.60L135.50-5.15L136.16-5.15C136.83-5.15 137.34-4.95 137.67-4.57C138.01-4.18 138.17-3.63 138.17-2.90C138.17-2.17 138.01-1.60 137.67-1.20C137.34-0.80 136.83-0.60 136.16-0.60ZM140.06-5.74L140.06 0L140.79 0L140.79-5.74ZM142.28-1.25L141.84-0.74C142.09-0.48 142.39-0.27 142.74-0.12C143.08 0.03 143.45 0.11 143.86 0.11C144.16 0.11 144.43 0.06 144.67-0.02C144.91-0.11 145.11-0.22 145.28-0.37C145.45-0.52 145.58-0.69 145.67-0.89C145.76-1.09 145.81-1.30 145.81-1.53C145.81-1.74 145.78-1.93 145.72-2.09C145.65-2.25 145.57-2.39 145.47-2.51C145.36-2.63 145.24-2.73 145.09-2.82C144.94-2.91 144.79-2.99 144.63-3.06L143.81-3.41C143.70-3.46 143.58-3.51 143.47-3.57C143.36-3.62 143.26-3.69 143.16-3.76C143.07-3.83 143.00-3.92 142.94-4.01C142.89-4.11 142.86-4.23 142.86-4.37C142.86-4.63 142.96-4.84 143.15-4.98C143.35-5.13 143.61-5.21 143.93-5.21C144.19-5.21 144.44-5.16 144.65-5.06C144.86-4.97 145.06-4.83 145.23-4.67L145.62-5.14C145.42-5.35 145.17-5.52 144.88-5.65C144.59-5.78 144.27-5.85 143.93-5.85C143.66-5.85 143.42-5.81 143.20-5.73C142.99-5.66 142.80-5.55 142.64-5.41C142.47-5.28 142.35-5.11 142.26-4.93C142.17-4.74 142.12-4.54 142.12-4.32C142.12-4.11 142.16-3.93 142.23-3.77C142.30-3.61 142.39-3.47 142.50-3.35C142.61-3.24 142.74-3.14 142.88-3.05C143.02-2.97 143.15-2.90 143.29-2.84L144.11-2.49C144.24-2.42 144.37-2.36 144.49-2.30C144.60-2.24 144.70-2.18 144.79-2.11C144.87-2.03 144.94-1.94 144.99-1.84C145.04-1.74 145.06-1.62 145.06-1.47C145.06-1.19 144.96-0.96 144.75-0.79C144.54-0.62 144.24-0.53 143.86-0.53C143.57-0.53 143.28-0.60 143.00-0.73C142.73-0.86 142.48-1.04 142.28-1.25ZM146.50-2.87C146.50-2.40 146.57-1.99 146.69-1.61C146.82-1.24 146.99-0.93 147.22-0.68C147.44-0.42 147.71-0.23 148.01-0.10C148.32 0.04 148.65 0.11 149.02 0.11C149.38 0.11 149.71 0.03 150.00-0.11C150.28-0.26 150.54-0.46 150.77-0.73L150.36-1.17C150.17-0.97 149.97-0.81 149.76-0.70C149.56-0.59 149.31-0.53 149.03-0.53C148.76-0.53 148.51-0.59 148.29-0.70C148.08-0.81 147.89-0.97 147.74-1.17C147.59-1.38 147.47-1.62 147.38-1.91C147.30-2.20 147.26-2.53 147.26-2.89C147.26-3.24 147.30-3.57 147.39-3.85C147.48-4.14 147.60-4.38 147.76-4.58C147.91-4.78 148.10-4.94 148.32-5.05C148.55-5.15 148.79-5.21 149.07-5.21C149.31-5.21 149.53-5.16 149.71-5.06C149.90-4.97 150.06-4.84 150.22-4.67L150.63-5.14C150.46-5.32 150.24-5.49 149.98-5.63C149.72-5.78 149.41-5.85 149.06-5.85C148.69-5.85 148.35-5.78 148.04-5.64C147.73-5.50 147.46-5.31 147.23-5.05C147.00-4.79 146.83-4.48 146.70-4.11C146.57-3.75 146.50-3.33 146.50-2.87ZM153.60 0.11C153.96 0.11 154.29 0.04 154.59-0.11C154.89-0.25 155.15-0.44 155.37-0.70C155.59-0.96 155.76-1.28 155.88-1.65C156.00-2.02 156.06-2.44 156.06-2.90C156.06-3.35 156.00-3.76 155.88-4.13C155.76-4.49 155.59-4.80 155.37-5.05C155.15-5.31 154.89-5.50 154.59-5.64C154.29-5.78 153.96-5.85 153.60-5.85C153.24-5.85 152.91-5.78 152.61-5.65C152.31-5.51 152.05-5.32 151.83-5.06C151.62-4.81 151.45-4.50 151.33-4.14C151.21-3.77 151.15-3.36 151.15-2.90C151.15-2.44 151.21-2.02 151.33-1.65C151.45-1.28 151.62-0.96 151.83-0.70C152.05-0.44 152.31-0.25 152.61-0.11C152.91 0.04 153.24 0.11 153.60 0.11ZM153.60-0.53C153.34-0.53 153.11-0.59 152.90-0.70C152.70-0.81 152.52-0.97 152.37-1.18C152.22-1.38 152.11-1.63 152.02-1.92C151.94-2.21 151.90-2.54 151.90-2.90C151.90-3.25 151.94-3.57 152.02-3.86C152.11-4.15 152.22-4.39 152.37-4.59C152.52-4.78 152.70-4.94 152.90-5.05C153.11-5.15 153.34-5.21 153.60-5.21C153.86-5.21 154.09-5.15 154.29-5.05C154.50-4.94 154.68-4.78 154.83-4.59C154.98-4.39 155.09-4.15 155.17-3.86C155.26-3.57 155.30-3.25 155.30-2.90C155.30-2.54 155.26-2.21 155.17-1.92C155.09-1.63 154.98-1.38 154.83-1.18C154.68-0.97 154.50-0.81 154.29-0.70C154.09-0.59 153.86-0.53 153.60-0.53ZM157.17-5.74L157.17-2.37C157.17-1.91 157.22-1.52 157.32-1.21C157.43-0.89 157.57-0.64 157.76-0.44C157.94-0.25 158.16-0.11 158.41-0.02C158.67 0.06 158.94 0.11 159.23 0.11C159.52 0.11 159.80 0.06 160.05-0.02C160.30-0.11 160.51-0.25 160.70-0.44C160.88-0.64 161.03-0.89 161.13-1.21C161.24-1.52 161.29-1.91 161.29-2.37L161.29-5.74L160.59-5.74L160.59-2.35C160.59-2.01 160.55-1.72 160.48-1.49C160.41-1.25 160.32-1.07 160.19-0.93C160.07-0.79 159.93-0.69 159.77-0.63C159.60-0.56 159.42-0.53 159.23-0.53C159.05-0.53 158.87-0.56 158.71-0.63C158.54-0.69 158.40-0.79 158.28-0.93C158.16-1.07 158.07-1.25 158.00-1.49C157.93-1.72 157.89-2.01 157.89-2.35L157.89-5.74ZM163.46-3.02L163.46-5.16L164.43-5.16C164.88-5.16 165.22-5.08 165.46-4.93C165.70-4.78 165.82-4.51 165.82-4.13C165.82-3.76 165.70-3.48 165.46-3.30C165.22-3.11 164.88-3.02 164.43-3.02ZM165.89 0L166.71 0L165.26-2.50C165.65-2.60 165.96-2.79 166.20-3.05C166.43-3.32 166.55-3.68 166.55-4.13C166.55-4.43 166.50-4.68 166.40-4.88C166.30-5.09 166.16-5.25 165.98-5.38C165.80-5.51 165.59-5.60 165.34-5.66C165.09-5.71 164.82-5.74 164.53-5.74L162.74-5.74L162.74 0L163.46 0L163.46-2.42L164.51-2.42ZM167.62-1.25L167.18-0.74C167.43-0.48 167.73-0.27 168.07-0.12C168.42 0.03 168.79 0.11 169.19 0.11C169.50 0.11 169.77 0.06 170.01-0.02C170.25-0.11 170.45-0.22 170.62-0.37C170.79-0.52 170.92-0.69 171.01-0.89C171.10-1.09 171.15-1.30 171.15-1.53C171.15-1.74 171.12-1.93 171.05-2.09C170.99-2.25 170.91-2.39 170.80-2.51C170.70-2.63 170.57-2.73 170.43-2.82C170.28-2.91 170.13-2.99 169.96-3.06L169.15-3.41C169.03-3.46 168.92-3.51 168.81-3.57C168.70-3.62 168.60-3.69 168.50-3.76C168.41-3.83 168.33-3.92 168.28-4.01C168.22-4.11 168.20-4.23 168.20-4.37C168.20-4.63 168.29-4.84 168.49-4.98C168.68-5.13 168.94-5.21 169.26-5.21C169.53-5.21 169.77-5.16 169.99-5.06C170.20-4.97 170.39-4.83 170.57-4.67L170.96-5.14C170.76-5.35 170.51-5.52 170.22-5.65C169.93-5.78 169.61-5.85 169.26-5.85C169.00-5.85 168.76-5.81 168.54-5.73C168.32-5.66 168.13-5.55 167.97-5.41C167.81-5.28 167.69-5.11 167.60-4.93C167.51-4.74 167.46-4.54 167.46-4.32C167.46-4.11 167.50-3.93 167.57-3.77C167.64-3.61 167.73-3.47 167.84-3.35C167.95-3.24 168.07-3.14 168.21-3.05C168.35-2.97 168.49-2.90 168.63-2.84L169.45-2.49C169.58-2.42 169.71-2.36 169.82-2.30C169.94-2.24 170.04-2.18 170.13-2.11C170.21-2.03 170.28-1.94 170.33-1.84C170.38-1.74 170.40-1.62 170.40-1.47C170.40-1.19 170.30-0.96 170.09-0.79C169.88-0.62 169.58-0.53 169.20-0.53C168.91-0.53 168.62-0.60 168.34-0.73C168.06-0.86 167.82-1.04 167.62-1.25ZM172.18-5.74L172.18 0L175.57 0L175.57-0.62L172.90-0.62L172.90-2.70L175.08-2.70L175.08-3.33L172.90-3.33L172.90-5.13L175.48-5.13L175.48-5.74Z" transform="translate(-0.24507658643326044, 5.846827133479213)"/></g></g></g></mask><defs v-gra="od"/>
  </svg>
</svg>


